<?xml version="1.0" encoding="UTF-8"?>
<svg id="Layer_2" data-name="Layer 2" xmlns="http://www.w3.org/2000/svg" viewBox="0 0 1249.51 1249.51">
  <defs>
    <style>
      .cls-1 {
        fill: #111;
      }
    </style>
  </defs>
  <g id="Layer_1-2" data-name="Layer 1">
    <polygon class="cls-1" points="629.45 499.9 667.71 1.47 637.28 500.41 706.78 5.38 645.03 501.46 745.49 11.78 652.76 503 783.77 20.57 660.36 504.97 821.38 31.73 667.79 507.43 858.24 45.25 675.09 510.37 894.14 61.03 682.15 513.74 929.03 79.06 689.03 517.59 962.7 99.27 695.63 521.82 994.99 121.51 701.94 526.47 1025.89 145.76 707.96 531.54 1055.14 171.91 713.64 536.93 1082.75 199.79 718.98 542.68 1108.55 229.41 723.93 548.75 1132.38 260.58 728.53 555.13 1154.26 293.16 732.7 561.82 1174.07 327.07 736.41 568.72 1191.66 362.15 739.74 575.81 1207.03 398.24 742.57 583.16 1220.08 435.22 744.96 590.61 1230.81 472.99 746.86 598.25 1239.18 511.38 748.31 605.93 1245.09 550.16 749.22 613.75 1248.53 589.24 749.69 621.56 1249.51 628.49 749.61 629.45 1248.04 667.71 749.1 637.28 1244.13 706.78 748.05 645.03 1237.78 745.49 746.56 652.76 1228.99 783.78 744.53 660.36 1217.78 821.38 742.08 667.79 1204.26 858.24 739.13 675.09 1188.48 894.14 735.77 682.15 1170.45 929.03 731.91 689.03 1150.29 962.7 727.69 695.63 1128 994.99 723.04 701.94 1103.75 1025.89 717.97 707.96 1077.66 1055.14 712.58 713.64 1049.72 1082.75 706.83 718.98 1020.1 1108.55 700.76 723.93 988.98 1132.39 694.38 728.53 956.35 1154.26 687.74 732.7 922.49 1174.07 680.85 736.42 887.41 1191.66 673.7 739.74 851.27 1207.03 666.4 742.58 814.28 1220.08 658.9 744.96 776.52 1230.81 651.31 746.86 738.18 1239.18 643.58 748.31 699.35 1245.09 635.76 749.22 660.27 1248.53 627.95 749.69 621.02 1249.51 620.11 749.61 581.8 1248.04 612.23 749.1 542.73 1244.13 604.48 748.05 504.02 1237.78 596.75 746.56 465.79 1228.99 589.2 744.54 428.13 1217.78 581.72 742.08 391.27 1204.26 574.48 739.14 355.37 1188.48 567.36 735.77 320.53 1170.45 560.53 731.92 286.86 1150.29 553.93 727.69 254.52 1128 547.57 723.04 223.67 1103.75 541.55 717.97 194.36 1077.66 535.87 712.58 166.76 1049.72 530.53 706.83 141.01 1020.1 525.58 700.76 117.12 988.98 520.97 694.38 95.25 956.35 516.81 687.74 75.49 922.49 513.09 680.85 57.85 887.41 509.76 673.7 42.48 851.27 506.93 666.4 29.43 814.28 504.54 658.9 18.69 776.52 502.65 651.31 10.38 738.19 501.25 643.58 4.48 699.35 500.29 635.76 .98 660.27 499.82 627.95 0 621.02 499.89 620.11 1.47 581.8 500.41 612.23 5.38 542.73 501.46 604.48 11.78 504.02 503 596.75 20.57 465.79 504.97 589.2 31.73 428.13 507.43 581.72 45.25 391.27 510.37 574.48 61.03 355.37 513.74 567.36 79.06 320.53 517.59 560.53 99.27 286.86 521.82 553.93 121.51 254.52 526.47 547.57 145.75 223.67 531.54 541.55 171.91 194.37 536.93 535.87 199.79 166.76 542.68 530.53 229.41 141.01 548.75 525.58 260.58 117.12 555.13 520.97 293.16 95.25 561.82 516.81 327.07 75.49 568.72 513.09 362.15 57.85 575.81 509.76 398.24 42.48 583.16 506.93 435.22 29.43 590.61 504.54 472.99 18.69 598.25 502.65 511.38 10.38 605.93 501.25 550.16 4.48 613.75 500.29 589.24 .98 621.56 499.82 628.49 0 629.45 499.9"/>
  </g>
</svg>