<?xml version="1.0" encoding="UTF-8"?>
<svg id="Layer_2" data-name="Layer 2" xmlns="http://www.w3.org/2000/svg" viewBox="0 0 856.21 576">
  <defs>
    <style>
      .cls-1 {
        letter-spacing: -.02em;
      }

      .cls-2, .cls-3, .cls-4 {
        fill: #fafafa;
      }

      .cls-5 {
        stroke: #111;
        stroke-linecap: round;
      }

      .cls-5, .cls-6 {
        fill: none;
        stroke-linejoin: round;
      }

      .cls-7 {
        fill: #707070;
      }

      .cls-8 {
        fill: #111;
      }

      .cls-3 {
        font-size: 25px;
      }

      .cls-3, .cls-4 {
        font-family: DMSerifDisplay-Regular, 'DM Serif Display';
      }

      .cls-4 {
        font-size: 52px;
      }

      .cls-9 {
        letter-spacing: 0em;
      }

      .cls-6 {
        stroke: #fafafa;
      }

      .cls-10 {
        letter-spacing: -.03em;
      }

      .cls-11 {
        fill: #ef4143;
      }

      .cls-12 {
        letter-spacing: 0em;
      }

      .cls-13 {
        letter-spacing: 0em;
      }

      .cls-14 {
        opacity: .3;
      }
    </style>
  </defs>
  <g id="Layer_1-2" data-name="Layer 1">
    <g>
      <g>
        <rect class="cls-8" x=".5" y=".5" width="855.21" height="575" rx="3" ry="3"/>
        <rect class="cls-5" x=".5" y=".5" width="855.21" height="575" rx="3" ry="3"/>
      </g>
      <g class="cls-14">
        <rect class="cls-7" x="42.38" y="207.67" width="771.46" height="325.96" rx="3" ry="3"/>
      </g>
      <g>
        <line class="cls-6" x1="152.58" y1="207.67" x2="152.58" y2="533.63"/>
        <line class="cls-6" x1="152.58" y1="533.62" x2="152.58" y2="207.67"/>
        <line class="cls-6" x1="373" y1="207.67" x2="373" y2="533.62"/>
        <line class="cls-6" x1="373" y1="289.16" x2="42.38" y2="289.16"/>
        <g>
          <line class="cls-6" x1="373" y1="370.65" x2="42.38" y2="370.65"/>
          <line class="cls-6" x1="42.38" y1="289.16" x2="373" y2="289.16"/>
        </g>
        <g>
          <line class="cls-6" x1="373" y1="452.14" x2="42.38" y2="452.14"/>
          <line class="cls-6" x1="42.38" y1="370.65" x2="373" y2="370.65"/>
        </g>
        <polyline class="cls-6" points="262.79 533.63 262.79 452.14 373 452.14"/>
        <line class="cls-6" x1="262.79" y1="452.14" x2="262.79" y2="207.67"/>
      </g>
      <g>
        <polyline class="cls-6" points="593.42 207.67 593.42 289.16 373 289.16"/>
        <polyline class="cls-6" points="373 289.16 593.42 289.16 593.42 370.65 373 370.65"/>
        <polyline class="cls-6" points="373 370.65 593.42 370.65 593.42 452.14 373 452.14"/>
        <line class="cls-6" x1="373" y1="452.14" x2="593.42" y2="452.14"/>
        <line class="cls-6" x1="446.47" y1="207.67" x2="446.47" y2="533.63"/>
        <g>
          <line class="cls-6" x1="593.42" y1="207.67" x2="593.42" y2="452.14"/>
          <line class="cls-6" x1="519.94" y1="533.63" x2="519.94" y2="207.67"/>
        </g>
      </g>
      <g>
        <line class="cls-6" x1="813.83" y1="289.16" x2="593.42" y2="289.16"/>
        <g>
          <line class="cls-6" x1="813.83" y1="370.65" x2="593.42" y2="370.65"/>
          <line class="cls-6" x1="593.42" y1="289.16" x2="813.83" y2="289.16"/>
        </g>
        <line class="cls-6" x1="703.62" y1="452.14" x2="703.62" y2="207.67"/>
      </g>
      <text class="cls-4" transform="translate(396.68 510.6)"><tspan x="0" y="0">0</tspan></text>
      <text class="cls-4" transform="translate(400.64 429.11)"><tspan x="0" y="0">1</tspan></text>
      <text class="cls-4" transform="translate(395.75 347.62)"><tspan x="0" y="0">4</tspan></text>
      <text class="cls-4" transform="translate(397.02 266.13)"><tspan x="0" y="0">7</tspan></text>
      <text class="cls-4" transform="translate(469.38 429.11)"><tspan x="0" y="0">2</tspan></text>
      <text class="cls-4" transform="translate(469.38 347.62)"><tspan x="0" y="0">5</tspan></text>
      <text class="cls-4" transform="translate(470.16 266.13)"><tspan x="0" y="0">8</tspan></text>
      <text class="cls-4" transform="translate(542.85 429.11)"><tspan x="0" y="0">3</tspan></text>
      <g>
        <path class="cls-2" d="m556.81,328.04c-1.78,0-3.22-.59-4.31-1.78-1.09-1.18-1.64-2.85-1.64-5,0-1.28.25-2.48.75-3.6.5-1.12,1.21-2.12,2.14-3,.92-.88,2.03-1.6,3.33-2.16,1.29-.56,2.73-.91,4.31-1.06l.08.38c-2.03.42-3.58,1.18-4.64,2.3-1.06,1.12-1.75,2.63-2.09,4.55.97-.57,2.05-.85,3.25-.85,1.02,0,1.86.21,2.53.62.67.42,1.17.98,1.51,1.69.34.71.51,1.5.51,2.39,0,1.18-.28,2.19-.84,3.01-.56.82-1.28,1.45-2.15,1.88-.88.42-1.79.64-2.74.64Zm-2.3-6.25c0,2.07.18,3.54.54,4.43s.92,1.32,1.69,1.32,1.33-.36,1.69-1.09c.36-.72.54-1.94.54-3.64,0-1.57-.18-2.66-.55-3.28-.37-.62-.97-.92-1.8-.92-.7,0-1.35.17-1.95.52-.1.8-.15,1.68-.15,2.65Z"/>
        <path class="cls-2" d="m552.03,335.89c.89,1.54,1.1,3.09.62,4.62-.48,1.54-1.65,2.84-3.51,3.92-1.11.64-2.27,1.02-3.49,1.15-1.22.12-2.44,0-3.67-.35-1.23-.36-2.41-.96-3.54-1.8-1.13-.84-2.15-1.91-3.08-3.2l.29-.25c1.38,1.55,2.82,2.51,4.31,2.87,1.5.36,3.16.2,4.98-.47-.97-.55-1.76-1.35-2.36-2.39-.51-.88-.75-1.71-.72-2.5.03-.78.26-1.5.71-2.15.44-.65,1.05-1.2,1.81-1.64,1.03-.59,2.03-.85,3.03-.78.99.07,1.89.38,2.7.92.8.55,1.44,1.23,1.92,2.05Zm-4.26,5.12c1.79-1.03,2.98-1.93,3.56-2.68s.69-1.46.3-2.12-.98-.97-1.79-.92c-.81.05-1.95.5-3.42,1.35-1.36.78-2.21,1.49-2.56,2.11-.35.62-.32,1.3.1,2.02.35.61.83,1.08,1.43,1.43.74-.31,1.53-.71,2.37-1.2Z"/>
        <path class="cls-2" d="m561.21,336.1c.89-1.54,2.12-2.49,3.69-2.85,1.57-.35,3.29,0,5.15,1.08,1.11.64,2.02,1.46,2.74,2.45.72.99,1.23,2.11,1.53,3.35.3,1.24.37,2.56.21,3.96-.16,1.4-.57,2.82-1.24,4.27l-.36-.12c.66-1.97.77-3.69.33-5.17-.44-1.47-1.4-2.84-2.9-4.08,0,1.12-.29,2.2-.89,3.24-.51.88-1.11,1.5-1.8,1.87-.69.37-1.43.52-2.22.47-.78-.06-1.56-.31-2.32-.75-1.03-.59-1.75-1.34-2.19-2.23-.43-.9-.62-1.83-.55-2.8.07-.97.34-1.87.82-2.69Zm6.56,1.13c-1.79-1.03-3.16-1.62-4.1-1.75s-1.61.14-1.99.8-.35,1.33.1,2.01c.45.67,1.41,1.43,2.88,2.28,1.36.78,2.39,1.17,3.11,1.16.72,0,1.28-.38,1.7-1.1.35-.61.52-1.26.52-1.95-.64-.49-1.38-.97-2.22-1.45Z"/>
      </g>
      <text class="cls-4" transform="translate(542.85 266.13)"><tspan x="0" y="0">9</tspan></text>
      <text class="cls-4" transform="translate(634.45 429.11)"><tspan x="0" y="0">+</tspan></text>
      <path class="cls-2" d="m746.22,412.78v-1.04h25.06v1.04h-25.06Z"/>
      <g>
        <path class="cls-2" d="m160.66,20.04l-17.23,4.84c-4.84,1.36-8.66,5.09-10.13,9.9l-5.24,17.12-4.84-17.23c-1.36-4.85-5.09-8.67-9.9-10.14l-17.12-5.23,17.24-4.84c4.84-1.36,8.66-5.09,10.13-9.9l.04-4.06h9.99l.04,4.17c1.36,4.84,5.1,8.66,9.91,10.13l17.11,5.24Z"/>
        <path class="cls-2" d="m211.17,196.93l5.23-17.12c1.47-4.81,5.29-8.54,10.13-9.9l17.23-4.84-17.12-5.23c-4.81-1.47-8.54-5.29-9.9-10.13l-4.84-55.36-5.23,55.25c-1.47,4.81-5.29,8.54-10.13,9.9l-17.23,4.84,17.12,5.23c4.81,1.47,8.54,5.29,9.9,10.13l4.84,17.23Z"/>
        <path class="cls-2" d="m42.6,124.68l5.23-17.12c1.47-4.81,5.29-8.54,10.13-9.9l17.23-4.84-17.12-5.23c-4.81-1.47-8.54-5.29-9.9-10.13l-4.84-55.36-5.23,55.25c-1.47,4.81-5.29,8.54-10.13,9.9l-17.23,4.84,17.12,5.23c4.81,1.47,8.54,5.29,9.9,10.13l4.84,17.23Z"/>
      </g>
      <text class="cls-4" transform="translate(634.45 347.62)"><tspan x="0" y="0">×</tspan></text>
      <text class="cls-4" transform="translate(744.66 347.62)"><tspan x="0" y="0">÷</tspan></text>
      <text class="cls-3" transform="translate(630.87 256.86)"><tspan x="0" y="0">m+</tspan></text>
      <text class="cls-3" transform="translate(742.33 256.86)"><tspan x="0" y="0">mr</tspan></text>
      <text class="cls-3" transform="translate(195.7 256.86)"><tspan x="0" y="0">X²</tspan></text>
      <text class="cls-3" transform="translate(195.71 338.35)"><tspan x="0" y="0">X³</tspan></text>
      <text class="cls-3" transform="translate(81.34 256.86)"><tspan class="cls-9" x="0" y="0">s</tspan><tspan x="10.82" y="0">in</tspan></text>
      <text class="cls-3" transform="translate(79.12 338.35)"><tspan class="cls-12" x="0" y="0">c</tspan><tspan x="12.2" y="0">os</tspan></text>
      <text class="cls-3" transform="translate(79.29 419.84)"><tspan x="0" y="0">t</tspan><tspan class="cls-13" x="9.02" y="0">a</tspan><tspan x="21.92" y="0">n</tspan></text>
      <text class="cls-4" transform="translate(170.66 429.11)"><tspan x="0" y="0">+/−</tspan></text>
      <text class="cls-3" transform="translate(307.01 256.86)"><tspan x="0" y="0">%</tspan></text>
      <text class="cls-4" transform="translate(475.41 510.6)"><tspan x="0" y="0">.</tspan></text>
      <text class="cls-3" transform="translate(535.19 501.49)"><tspan class="cls-1" x="0" y="0">D</tspan><tspan x="15.6" y="0">EL</tspan></text>
      <text class="cls-3" transform="translate(299.24 501.49)"><tspan class="cls-10" x="0" y="0">A</tspan><tspan x="15.53" y="0">C</tspan></text>
      <text class="cls-3" transform="translate(203.09 501.49)"><tspan x="0" y="0">)</tspan></text>
      <text class="cls-3" transform="translate(92.88 501.49)"><tspan x="0" y="0">(</tspan></text>
      <polyline class="cls-6" points="301.67 338.98 311.01 348.63 322.34 311.17 334.12 311.17"/>
      <g>
        <rect class="cls-2" x="306.36" y="400.14" width="23.08" height="3.75"/>
        <rect class="cls-2" x="309.07" y="401.83" width="3.75" height="20.82"/>
        <path class="cls-2" d="m328.99,420.55c-.26.3-.53.53-.8.71-.26.17-.57.26-.92.26-.4,0-.73-.15-.99-.45s-.39-.74-.39-1.32v-16.09h2.83v-.5h-2.8l.06-3.02h-.67l-1.62,1.8c-.36.36-.73.65-1.11.87-.37.22-.82.39-1.34.5l-.6.1v.25h1.73v15.64c0,1.16.29,2.01.89,2.55.59.53,1.42.8,2.48.8.84,0,1.54-.17,2.13-.5.58-.34,1.04-.79,1.37-1.35l-.25-.25Z"/>
      </g>
      <g class="cls-14">
        <rect class="cls-7" x="42.6" y="42.33" width="771" height="122" rx="3" ry="3"/>
      </g>
      <path class="cls-11" d="m813.83,452.14h-220.42v81.49h217.32c1.71,0,3.1-1.39,3.1-3.1v-78.39Z"/>
      <text class="cls-4" transform="translate(689.56 510.6)"><tspan x="0" y="0">=</tspan></text>
    </g>
  </g>
</svg>