<?xml version="1.0" encoding="UTF-8"?>
<svg id="Layer_2" data-name="Layer 2" xmlns="http://www.w3.org/2000/svg" viewBox="0 0 855.21 575">
  <defs>
    <style>
      .cls-1 {
        letter-spacing: -.02em;
      }

      .cls-2 {
        font-size: 25px;
      }

      .cls-2, .cls-3, .cls-4 {
        fill: #111;
      }

      .cls-2, .cls-3, .cls-5 {
        font-family: DMSerifDisplay-Regular, 'DM Serif Display';
      }

      .cls-3, .cls-5 {
        font-size: 52px;
      }

      .cls-6 {
        fill: #707070;
      }

      .cls-7 {
        stroke: #707070;
      }

      .cls-7, .cls-8 {
        fill: none;
        stroke-linejoin: round;
      }

      .cls-5 {
        fill: #fafafa;
      }

      .cls-9 {
        letter-spacing: 0em;
      }

      .cls-8 {
        stroke: #111;
        stroke-width: 2px;
      }

      .cls-10 {
        letter-spacing: -.03em;
      }

      .cls-11 {
        fill: #ef4143;
      }

      .cls-12 {
        letter-spacing: 0em;
      }

      .cls-13 {
        letter-spacing: 0em;
      }

      .cls-14 {
        opacity: .3;
      }
    </style>
  </defs>
  <g id="Layer_1-2" data-name="Layer 1">
    <g>
      <rect class="cls-11" width="855.21" height="575" rx="3" ry="3"/>
      <g class="cls-14">
        <rect class="cls-6" x="41.88" y="207.17" width="771.46" height="325.96" rx="3" ry="3"/>
      </g>
      <g class="cls-14">
        <line class="cls-7" x1="152.08" y1="207.17" x2="152.08" y2="533.13"/>
        <line class="cls-7" x1="152.08" y1="533.12" x2="152.08" y2="207.17"/>
        <line class="cls-7" x1="372.5" y1="207.17" x2="372.5" y2="533.12"/>
        <line class="cls-7" x1="372.5" y1="288.66" x2="41.88" y2="288.66"/>
        <g>
          <line class="cls-7" x1="372.5" y1="370.15" x2="41.88" y2="370.15"/>
          <line class="cls-7" x1="41.88" y1="288.66" x2="372.5" y2="288.66"/>
        </g>
        <g>
          <line class="cls-7" x1="372.5" y1="451.64" x2="41.88" y2="451.64"/>
          <line class="cls-7" x1="41.88" y1="370.15" x2="372.5" y2="370.15"/>
        </g>
        <polyline class="cls-7" points="262.29 533.13 262.29 451.64 372.5 451.64"/>
        <line class="cls-7" x1="262.29" y1="451.64" x2="262.29" y2="207.17"/>
      </g>
      <g class="cls-14">
        <polyline class="cls-7" points="592.92 207.17 592.92 288.66 372.5 288.66"/>
        <polyline class="cls-7" points="372.5 288.66 592.92 288.66 592.92 370.15 372.5 370.15"/>
        <polyline class="cls-7" points="372.5 370.15 592.92 370.15 592.92 451.64 372.5 451.64"/>
        <line class="cls-7" x1="372.5" y1="451.64" x2="592.92" y2="451.64"/>
        <line class="cls-7" x1="445.97" y1="207.17" x2="445.97" y2="533.13"/>
        <g>
          <line class="cls-7" x1="592.92" y1="207.17" x2="592.92" y2="451.64"/>
          <line class="cls-7" x1="519.44" y1="533.13" x2="519.44" y2="207.17"/>
        </g>
      </g>
      <g class="cls-14">
        <line class="cls-7" x1="813.33" y1="288.66" x2="592.92" y2="288.66"/>
        <g>
          <line class="cls-7" x1="813.33" y1="370.15" x2="592.92" y2="370.15"/>
          <line class="cls-7" x1="592.92" y1="288.66" x2="813.33" y2="288.66"/>
        </g>
        <line class="cls-7" x1="703.12" y1="451.64" x2="703.12" y2="207.17"/>
      </g>
      <text class="cls-3" transform="translate(396.18 510.1)"><tspan x="0" y="0">0</tspan></text>
      <text class="cls-3" transform="translate(400.14 428.61)"><tspan x="0" y="0">1</tspan></text>
      <text class="cls-3" transform="translate(395.25 347.12)"><tspan x="0" y="0">4</tspan></text>
      <text class="cls-3" transform="translate(396.52 265.63)"><tspan x="0" y="0">7</tspan></text>
      <text class="cls-3" transform="translate(468.88 428.61)"><tspan x="0" y="0">2</tspan></text>
      <text class="cls-3" transform="translate(468.88 347.12)"><tspan x="0" y="0">5</tspan></text>
      <text class="cls-3" transform="translate(469.66 265.63)"><tspan x="0" y="0">8</tspan></text>
      <text class="cls-3" transform="translate(542.35 428.61)"><tspan x="0" y="0">3</tspan></text>
      <text class="cls-3" transform="translate(542.4 347.12)"><tspan x="0" y="0">6</tspan></text>
      <text class="cls-3" transform="translate(542.35 265.63)"><tspan x="0" y="0">9</tspan></text>
      <text class="cls-3" transform="translate(633.95 428.61)"><tspan x="0" y="0">+</tspan></text>
      <text class="cls-3" transform="translate(744.16 428.61)"><tspan x="0" y="0">−</tspan></text>
      <text class="cls-3" transform="translate(633.95 347.12)"><tspan x="0" y="0">×</tspan></text>
      <text class="cls-3" transform="translate(744.16 347.12)"><tspan x="0" y="0">÷</tspan></text>
      <text class="cls-2" transform="translate(630.37 256.36)"><tspan x="0" y="0">m+</tspan></text>
      <text class="cls-2" transform="translate(741.83 256.36)"><tspan x="0" y="0">mr</tspan></text>
      <text class="cls-2" transform="translate(195.2 256.36)"><tspan x="0" y="0">X²</tspan></text>
      <text class="cls-2" transform="translate(195.21 337.85)"><tspan x="0" y="0">X³</tspan></text>
      <text class="cls-2" transform="translate(80.84 256.36)"><tspan class="cls-9" x="0" y="0">s</tspan><tspan x="10.82" y="0">in</tspan></text>
      <text class="cls-2" transform="translate(78.62 337.85)"><tspan class="cls-12" x="0" y="0">c</tspan><tspan x="12.2" y="0">os</tspan></text>
      <text class="cls-2" transform="translate(78.79 419.34)"><tspan x="0" y="0">t</tspan><tspan class="cls-13" x="9.02" y="0">a</tspan><tspan x="21.92" y="0">n</tspan></text>
      <text class="cls-3" transform="translate(170.16 428.61)"><tspan x="0" y="0">+/−</tspan></text>
      <text class="cls-2" transform="translate(306.51 256.36)"><tspan x="0" y="0">%</tspan></text>
      <text class="cls-3" transform="translate(474.91 510.1)"><tspan x="0" y="0">.</tspan></text>
      <text class="cls-2" transform="translate(534.69 500.99)"><tspan class="cls-1" x="0" y="0">D</tspan><tspan x="15.6" y="0">EL</tspan></text>
      <text class="cls-2" transform="translate(298.74 500.99)"><tspan class="cls-10" x="0" y="0">A</tspan><tspan x="15.53" y="0">C</tspan></text>
      <text class="cls-2" transform="translate(202.59 500.99)"><tspan x="0" y="0">)</tspan></text>
      <text class="cls-2" transform="translate(92.38 500.99)"><tspan x="0" y="0">(</tspan></text>
      <polyline class="cls-8" points="301.17 338.48 310.51 348.13 321.84 310.67 333.62 310.67"/>
      <g>
        <rect class="cls-4" x="305.86" y="399.64" width="23.08" height="3.75"/>
        <rect class="cls-4" x="308.57" y="401.33" width="3.75" height="20.82"/>
        <path class="cls-4" d="m328.49,420.05c-.26.3-.53.53-.8.71-.26.17-.57.26-.92.26-.4,0-.73-.15-.99-.45s-.39-.74-.39-1.32v-16.09h2.83v-.5h-2.8l.06-3.02h-.67l-1.62,1.8c-.36.36-.73.65-1.11.87-.37.22-.82.39-1.34.5l-.6.1v.25h1.73v15.64c0,1.16.29,2.01.89,2.55.59.53,1.42.8,2.48.8.84,0,1.54-.17,2.13-.5.58-.34,1.04-.79,1.37-1.35l-.25-.25Z"/>
      </g>
      <g class="cls-14">
        <rect class="cls-6" x="42.1" y="41.83" width="771" height="122" rx="3" ry="3"/>
      </g>
      <path class="cls-4" d="m592.92,451.64h220.42v78.39c0,1.71-1.39,3.1-3.1,3.1h-217.32v-81.49h0Z"/>
      <text class="cls-5" transform="translate(689.06 510.1)"><tspan x="0" y="0">=</tspan></text>
    </g>
  </g>
</svg>