<?xml version="1.0" encoding="UTF-8"?>
<svg id="Layer_2" data-name="Layer 2" xmlns="http://www.w3.org/2000/svg" viewBox="0 0 48.68 58.36">
  <defs>
    <style>
      .cls-1 {
        fill: none;
        stroke: #fafafa;
        stroke-linejoin: round;
      }
    </style>
  </defs>
  <g id="Layer_1-2" data-name="Layer 1">
    <g>
      <path class="cls-1" d="m48.18,24.34C48.18,11.17,37.51.5,24.34.5S.5,11.17.5,24.34c0,3.14.61,6.13,1.71,8.87-1.07,1.28-1.71,2.93-1.71,4.73,0,4.09,3.31,7.4,7.4,7.4,1.27,0,2.47-.32,3.51-.89v13.4h25.85v-13.4c1.05.56,2.24.89,3.51.89,4.09,0,7.4-3.31,7.4-7.4,0-1.8-.64-3.45-1.71-4.73,1.1-2.74,1.71-5.74,1.71-8.87Z"/>
      <path class="cls-1" d="m18.59,36.7c2.05-2.28,1.86-5.8-.42-7.85s-8.26-4.55-10.31-2.27.6,8.49,2.88,10.54,5.8,1.86,7.85-.42Z"/>
      <path class="cls-1" d="m30.41,36.7c-2.05-2.28-1.86-5.8.42-7.85s8.26-4.55,10.31-2.27-.6,8.49-2.88,10.54c-2.28,2.05-5.8,1.86-7.85-.42Z"/>
      <path class="cls-1" d="m24.34,45.98c-2.81,0-5.08,2.5-5.08-.3,0-2.81,1.95-8.4,4.76-8.4s5.41,5.6,5.41,8.4c0,2.81-2.28.3-5.08.3Z"/>
    </g>
  </g>
</svg>