<?xml version="1.0" encoding="UTF-8"?>
<svg id="Layer_2" data-name="Layer 2" xmlns="http://www.w3.org/2000/svg" viewBox="0 0 856.21 576">
  <defs>
    <style>
      .cls-1 {
        letter-spacing: -.02em;
      }

      .cls-2, .cls-3, .cls-4 {
        fill: #fafafa;
      }

      .cls-5 {
        stroke-linecap: round;
      }

      .cls-5, .cls-6, .cls-7 {
        fill: none;
        stroke-linejoin: round;
      }

      .cls-5, .cls-7 {
        stroke: #111;
      }

      .cls-8 {
        fill: #ea6e3d;
      }

      .cls-9 {
        fill: #707070;
      }

      .cls-10 {
        fill: #111;
      }

      .cls-3 {
        font-size: 25px;
      }

      .cls-3, .cls-4 {
        font-family: DMSerifDisplay-Regular, 'DM Serif Display';
      }

      .cls-4 {
        font-size: 52px;
      }

      .cls-11 {
        letter-spacing: 0em;
      }

      .cls-6 {
        stroke: #fafafa;
      }

      .cls-12 {
        letter-spacing: -.03em;
      }

      .cls-13 {
        letter-spacing: 0em;
      }

      .cls-14 {
        letter-spacing: 0em;
      }

      .cls-15 {
        opacity: .3;
      }
    </style>
  </defs>
  <g id="Layer_1-2" data-name="Layer 1">
    <g>
      <g>
        <rect class="cls-10" x=".5" y=".5" width="855.21" height="575" rx="3" ry="3"/>
        <rect class="cls-5" x=".5" y=".5" width="855.21" height="575" rx="3" ry="3"/>
      </g>
      <g class="cls-15">
        <rect class="cls-9" x="42.38" y="207.67" width="771.46" height="325.96" rx="3" ry="3"/>
      </g>
      <g>
        <line class="cls-7" x1="152.58" y1="207.67" x2="152.58" y2="533.63"/>
        <line class="cls-7" x1="152.58" y1="533.62" x2="152.58" y2="207.67"/>
        <line class="cls-7" x1="373" y1="207.67" x2="373" y2="533.62"/>
        <line class="cls-7" x1="373" y1="289.16" x2="42.38" y2="289.16"/>
        <g>
          <line class="cls-7" x1="373" y1="370.65" x2="42.38" y2="370.65"/>
          <line class="cls-7" x1="42.38" y1="289.16" x2="373" y2="289.16"/>
        </g>
        <g>
          <line class="cls-7" x1="373" y1="452.14" x2="42.38" y2="452.14"/>
          <line class="cls-7" x1="42.38" y1="370.65" x2="373" y2="370.65"/>
        </g>
        <polyline class="cls-7" points="262.79 533.63 262.79 452.14 373 452.14"/>
        <line class="cls-7" x1="262.79" y1="452.14" x2="262.79" y2="207.67"/>
      </g>
      <g>
        <polyline class="cls-7" points="593.42 207.67 593.42 289.16 373 289.16"/>
        <polyline class="cls-7" points="373 289.16 593.42 289.16 593.42 370.65 373 370.65"/>
        <polyline class="cls-7" points="373 370.65 593.42 370.65 593.42 452.14 373 452.14"/>
        <line class="cls-7" x1="373" y1="452.14" x2="593.42" y2="452.14"/>
        <line class="cls-7" x1="446.47" y1="207.67" x2="446.47" y2="533.63"/>
        <g>
          <line class="cls-7" x1="593.42" y1="207.67" x2="593.42" y2="452.14"/>
          <line class="cls-7" x1="519.94" y1="533.63" x2="519.94" y2="207.67"/>
        </g>
      </g>
      <g>
        <line class="cls-7" x1="813.83" y1="289.16" x2="593.42" y2="289.16"/>
        <g>
          <line class="cls-7" x1="813.83" y1="370.65" x2="593.42" y2="370.65"/>
          <line class="cls-7" x1="593.42" y1="289.16" x2="813.83" y2="289.16"/>
        </g>
        <line class="cls-7" x1="703.62" y1="452.14" x2="703.62" y2="207.67"/>
      </g>
      <text class="cls-4" transform="translate(396.68 510.6)"><tspan x="0" y="0">0</tspan></text>
      <text class="cls-4" transform="translate(400.64 429.11)"><tspan x="0" y="0">1</tspan></text>
      <text class="cls-4" transform="translate(395.75 347.62)"><tspan x="0" y="0">4</tspan></text>
      <text class="cls-4" transform="translate(397.02 266.13)"><tspan x="0" y="0">7</tspan></text>
      <text class="cls-4" transform="translate(469.38 429.11)"><tspan x="0" y="0">2</tspan></text>
      <text class="cls-4" transform="translate(469.38 347.62)"><tspan x="0" y="0">5</tspan></text>
      <text class="cls-4" transform="translate(470.16 266.13)"><tspan x="0" y="0">8</tspan></text>
      <text class="cls-4" transform="translate(542.85 429.11)"><tspan x="0" y="0">3</tspan></text>
      <text class="cls-4" transform="translate(542.9 347.62)"><tspan x="0" y="0">6</tspan></text>
      <text class="cls-4" transform="translate(542.85 266.13)"><tspan x="0" y="0">9</tspan></text>
      <text class="cls-4" transform="translate(634.45 429.11)"><tspan x="0" y="0">+</tspan></text>
      <text class="cls-4" transform="translate(744.66 429.11)"><tspan x="0" y="0">−</tspan></text>
      <text class="cls-4" transform="translate(634.45 347.62)"><tspan x="0" y="0">×</tspan></text>
      <text class="cls-4" transform="translate(744.66 347.62)"><tspan x="0" y="0">÷</tspan></text>
      <text class="cls-3" transform="translate(630.87 256.86)"><tspan x="0" y="0">m+</tspan></text>
      <text class="cls-3" transform="translate(742.33 256.86)"><tspan x="0" y="0">mr</tspan></text>
      <text class="cls-3" transform="translate(195.7 256.86)"><tspan x="0" y="0">X²</tspan></text>
      <text class="cls-3" transform="translate(195.71 338.35)"><tspan x="0" y="0">X³</tspan></text>
      <text class="cls-3" transform="translate(81.34 256.86)"><tspan class="cls-11" x="0" y="0">s</tspan><tspan x="10.82" y="0">in</tspan></text>
      <text class="cls-3" transform="translate(79.12 338.35)"><tspan class="cls-13" x="0" y="0">c</tspan><tspan x="12.2" y="0">os</tspan></text>
      <text class="cls-3" transform="translate(79.29 419.84)"><tspan x="0" y="0">t</tspan><tspan class="cls-14" x="9.02" y="0">a</tspan><tspan x="21.92" y="0">n</tspan></text>
      <text class="cls-4" transform="translate(170.66 429.11)"><tspan x="0" y="0">+/−</tspan></text>
      <text class="cls-3" transform="translate(307.01 256.86)"><tspan x="0" y="0">%</tspan></text>
      <text class="cls-4" transform="translate(475.41 510.6)"><tspan x="0" y="0">.</tspan></text>
      <text class="cls-3" transform="translate(535.19 501.49)"><tspan class="cls-1" x="0" y="0">D</tspan><tspan x="15.6" y="0">EL</tspan></text>
      <text class="cls-3" transform="translate(299.24 501.49)"><tspan class="cls-12" x="0" y="0">A</tspan><tspan x="15.53" y="0">C</tspan></text>
      <text class="cls-3" transform="translate(203.09 501.49)"><tspan x="0" y="0">)</tspan></text>
      <text class="cls-3" transform="translate(92.88 501.49)"><tspan x="0" y="0">(</tspan></text>
      <polyline class="cls-6" points="301.67 338.98 311.01 348.63 322.34 311.17 334.12 311.17"/>
      <g>
        <rect class="cls-2" x="306.36" y="400.14" width="23.08" height="3.75"/>
        <rect class="cls-2" x="309.07" y="401.83" width="3.75" height="20.82"/>
        <path class="cls-2" d="m328.99,420.55c-.26.3-.53.53-.8.71-.26.17-.57.26-.92.26-.4,0-.73-.15-.99-.45s-.39-.74-.39-1.32v-16.09h2.83v-.5h-2.8l.06-3.02h-.67l-1.62,1.8c-.36.36-.73.65-1.11.87-.37.22-.82.39-1.34.5l-.6.1v.25h1.73v15.64c0,1.16.29,2.01.89,2.55.59.53,1.42.8,2.48.8.84,0,1.54-.17,2.13-.5.58-.34,1.04-.79,1.37-1.35l-.25-.25Z"/>
      </g>
      <g class="cls-15">
        <rect class="cls-9" x="42.6" y="42.33" width="771" height="122" rx="3" ry="3"/>
      </g>
      <path class="cls-8" d="m593.42,452.14h220.42v78.39c0,1.71-1.39,3.1-3.1,3.1h-217.32v-81.49h0Z"/>
      <text class="cls-4" transform="translate(689.56 510.6)"><tspan x="0" y="0">=</tspan></text>
    </g>
  </g>
</svg>