<?xml version="1.0" encoding="UTF-8"?>
<svg id="Layer_2" data-name="Layer 2" xmlns="http://www.w3.org/2000/svg" viewBox="0 0 1863.93 906.01">
  <defs>
    <style>
      .cls-1 {
        fill: #1c1c1c;
      }
    </style>
  </defs>
  <g id="Layer_1-2" data-name="Layer 1">
    <g>
      <polygon class="cls-1" points="1557.45 456.71 1480.1 349.81 1080.66 589.47 931.96 398.17 783.26 589.47 383.82 349.81 306.48 456.71 0 349.81 335.16 776.93 402.06 659.2 793.69 906.01 931.96 755.18 1070.24 906.01 1461.86 659.2 1528.77 776.93 1863.93 349.81 1557.45 456.71"/>
      <g>
        <path class="cls-1" d="m381.97,0l58.1,105.76c34.6,62.98,103.79,98.83,175.19,90.79l239.55-26.99L381.97,0Z"/>
        <path class="cls-1" d="m1481.95,0l-58.1,105.76c-34.6,62.98-103.79,98.83-175.19,90.79l-239.55-26.99L1481.95,0Z"/>
      </g>
    </g>
  </g>
</svg>